<svg width="19" height="19" viewBox="0 0 19 19" fill="none" xmlns="http://www.w3.org/2000/svg">
<path d="M2.92277 19H15.4489C16.2253 18.9978 16.9691 18.6873 17.517 18.1366C18.065 17.586 18.3724 16.8402 18.3717 16.0629V9.76144C18.3717 9.5397 18.2837 9.32705 18.1271 9.17025C17.9705 9.01346 17.7581 8.92537 17.5366 8.92537C17.3152 8.92537 17.1028 9.01346 16.9461 9.17025C16.7895 9.32705 16.7016 9.5397 16.7016 9.76144V16.0629C16.7027 16.3968 16.5714 16.7176 16.3366 16.9547C16.1017 17.1919 15.7825 17.3261 15.4489 17.3279H2.92277C2.58922 17.3261 2.27 17.1919 2.03516 16.9547C1.80032 16.7176 1.66905 16.3968 1.67016 16.0629V3.5436C1.66905 3.20965 1.80032 2.8889 2.03516 2.65174C2.27 2.41459 2.58922 2.2804 2.92277 2.27863H9.18586C9.40733 2.27863 9.61974 2.19054 9.77635 2.03375C9.93295 1.87696 10.0209 1.6643 10.0209 1.44256C10.0209 1.22082 9.93295 1.00816 9.77635 0.85137C9.61974 0.694577 9.40733 0.606491 9.18586 0.606491H2.92277C2.1464 0.608705 1.40263 0.919207 0.854668 1.46985C0.306709 2.0205 -0.000665633 2.76631 1.08235e-06 3.5436V16.0629C-0.000665633 16.8402 0.306709 17.586 0.854668 18.1366C1.40263 18.6873 2.1464 18.9978 2.92277 19Z" fill="black"/>
<path d="M6.67802 8.74986L6.01914 11.7714C5.98932 11.9085 5.99441 12.0508 6.03396 12.1854C6.07351 12.32 6.14624 12.4424 6.24545 12.5414C6.34602 12.638 6.46836 12.7088 6.6021 12.748C6.73584 12.7871 6.87703 12.7934 7.01372 12.7663L10.025 12.105C10.1814 12.0706 10.3246 11.992 10.4375 11.8784L18.0484 4.2585C18.2811 4.02559 18.4657 3.74907 18.5916 3.44473C18.7175 3.14039 18.7824 2.8142 18.7824 2.48478C18.7824 2.15536 18.7175 1.82917 18.5916 1.52483C18.4657 1.2205 18.2811 0.943976 18.0484 0.711062C17.5714 0.254682 16.937 0 16.2772 0C15.6174 0 14.983 0.254682 14.506 0.711062L6.90683 8.33852C6.79277 8.45085 6.71335 8.59363 6.67802 8.74986ZM15.6868 1.8941C15.8457 1.74172 16.0572 1.65665 16.2772 1.65665C16.4973 1.65665 16.7088 1.74172 16.8676 1.8941C17.0221 2.05181 17.1087 2.26389 17.1087 2.48478C17.1087 2.70568 17.0221 2.91776 16.8676 3.07546L16.2772 3.66656L15.0964 2.48436L15.6868 1.8941ZM8.25464 9.34681L13.9115 3.66907L15.0806 4.84542L9.42125 10.5248L7.92228 10.8542L8.25464 9.34681Z" fill="black"/>
</svg>
