<svg width="20" height="20" viewBox="0 0 20 20" fill="none" xmlns="http://www.w3.org/2000/svg">
<path d="M19.3939 2.42857H13.3333V0.571429C13.3333 0.257143 13.0606 0 12.7273 0H7.27273C6.93939 0 6.66667 0.257143 6.66667 0.571429V2.42857H0.606061C0.272727 2.42857 0 2.68571 0 3C0 3.31429 0.272727 3.57143 0.606061 3.57143H2.60606V19.4286C2.60606 19.7429 2.87879 20 3.21212 20H16.7879C17.1212 20 17.3939 19.7429 17.3939 19.4286V3.57143H19.3939C19.7273 3.57143 20 3.31429 20 3C20 2.68571 19.7273 2.42857 19.3939 2.42857ZM7.87879 1.14286H12.1212V2.28571H7.87879V1.14286ZM16.1818 18.8571H3.81818V3.57143H16.1818V18.8571ZM13.3333 6.65714V15.8C13.3333 16.1143 13.0606 16.3714 12.7273 16.3714C12.3939 16.3714 12.1212 16.1143 12.1212 15.8V6.65714C12.1212 6.34286 12.3939 6.08571 12.7273 6.08571C13.0606 6.08571 13.3333 6.31429 13.3333 6.65714ZM7.87879 6.65714V15.8C7.87879 16.1143 7.60606 16.3714 7.27273 16.3714C6.93939 16.3714 6.66667 16.1143 6.66667 15.8V6.65714C6.66667 6.34286 6.93939 6.08571 7.27273 6.08571C7.60606 6.08571 7.87879 6.31429 7.87879 6.65714Z" fill="black"/>
</svg>
